<svg xmlns="http://www.w3.org/2000/svg" xmlns:xlink="http://www.w3.org/1999/xlink" width="214.015" height="40.01" viewBox="0 0 214.015 40.01">
  <defs>
    <filter id="Path_198" x="14.058" y="0" width="26.063" height="28.164" filterUnits="userSpaceOnUse">
      <feOffset dy="3" input="SourceAlpha"/>
      <feGaussianBlur stdDeviation="3" result="blur"/>
      <feFlood flood-opacity="0.161"/>
      <feComposite operator="in" in2="blur"/>
      <feComposite in="SourceGraphic"/>
    </filter>
    <filter id="Path_199" x="0" y="11.847" width="26.064" height="28.163" filterUnits="userSpaceOnUse">
      <feOffset dy="3" input="SourceAlpha"/>
      <feGaussianBlur stdDeviation="3" result="blur-2"/>
      <feFlood flood-opacity="0.161"/>
      <feComposite operator="in" in2="blur-2"/>
      <feComposite in="SourceGraphic"/>
    </filter>
    <filter id="Path_200" x="0.03" y="0.048" width="39.96" height="39.961" filterUnits="userSpaceOnUse">
      <feOffset dy="3" input="SourceAlpha"/>
      <feGaussianBlur stdDeviation="3" result="blur-3"/>
      <feFlood flood-opacity="0.161"/>
      <feComposite operator="in" in2="blur-3"/>
      <feComposite in="SourceGraphic"/>
    </filter>
    <filter id="Path_201" x="31.164" y="0.988" width="41.684" height="38.001" filterUnits="userSpaceOnUse">
      <feOffset dy="3" input="SourceAlpha"/>
      <feGaussianBlur stdDeviation="3" result="blur-4"/>
      <feFlood flood-opacity="0.161"/>
      <feComposite operator="in" in2="blur-4"/>
      <feComposite in="SourceGraphic"/>
    </filter>
    <filter id="Path_202" x="59.066" y="1.02" width="41.743" height="38.002" filterUnits="userSpaceOnUse">
      <feOffset dy="3" input="SourceAlpha"/>
      <feGaussianBlur stdDeviation="3" result="blur-5"/>
      <feFlood flood-opacity="0.161"/>
      <feComposite operator="in" in2="blur-5"/>
      <feComposite in="SourceGraphic"/>
    </filter>
    <filter id="Path_203" x="86.033" y="1.02" width="44.275" height="38.002" filterUnits="userSpaceOnUse">
      <feOffset dy="3" input="SourceAlpha"/>
      <feGaussianBlur stdDeviation="3" result="blur-6"/>
      <feFlood flood-opacity="0.161"/>
      <feComposite operator="in" in2="blur-6"/>
      <feComposite in="SourceGraphic"/>
    </filter>
    <filter id="Path_204" x="116.405" y="1.02" width="41.925" height="38.002" filterUnits="userSpaceOnUse">
      <feOffset dy="3" input="SourceAlpha"/>
      <feGaussianBlur stdDeviation="3" result="blur-7"/>
      <feFlood flood-opacity="0.161"/>
      <feComposite operator="in" in2="blur-7"/>
      <feComposite in="SourceGraphic"/>
    </filter>
    <filter id="Path_205" x="144.369" y="1.02" width="41.745" height="38.002" filterUnits="userSpaceOnUse">
      <feOffset dy="3" input="SourceAlpha"/>
      <feGaussianBlur stdDeviation="3" result="blur-8"/>
      <feFlood flood-opacity="0.161"/>
      <feComposite operator="in" in2="blur-8"/>
      <feComposite in="SourceGraphic"/>
    </filter>
    <filter id="Path_206" x="172.332" y="0.988" width="41.684" height="38.001" filterUnits="userSpaceOnUse">
      <feOffset dy="3" input="SourceAlpha"/>
      <feGaussianBlur stdDeviation="3" result="blur-9"/>
      <feFlood flood-opacity="0.161"/>
      <feComposite operator="in" in2="blur-9"/>
      <feComposite in="SourceGraphic"/>
    </filter>
  </defs>
  <g id="Group_181" data-name="Group 181" transform="translate(-36.518 -29.266)">
    <g transform="matrix(1, 0, 0, 1, 36.52, 29.27)" filter="url(#Path_198)">
      <path id="Path_198-2" data-name="Path 198" d="M205.444,353.081v-1.915h0c0-.029,0-.054,0-.082a3.91,3.91,0,0,0-4.031-4.032,4.033,4.033,0,0,0-1.814,7.635h0l.011.006c.016.008.062.029.132.06s.129.059.2.084a11.012,11.012,0,0,0,1.384.477h0l.014,0c.112.029.227.057.342.083.165.047.413.118.7.221a10.435,10.435,0,0,1,3.038,1.6l.019-4.1C205.445,353.1,205.444,353.092,205.444,353.081Z" transform="translate(-174.32 -341.05)" fill="#fff"/>
    </g>
    <g transform="matrix(1, 0, 0, 1, 36.52, 29.27)" filter="url(#Path_199)">
      <path id="Path_199-2" data-name="Path 199" d="M169.445,378.05h0l0,0-.01,0c-.017-.008-.062-.03-.133-.06s-.129-.059-.2-.084a10.914,10.914,0,0,0-1.381-.478h0l-.014,0c-.112-.029-.228-.057-.344-.082-.165-.047-.412-.118-.7-.221a10.411,10.411,0,0,1-3.04-1.594l-.019,4.1c0,.011,0,.023,0,.035v1.914h0c0,.027,0,.054,0,.083a3.91,3.91,0,0,0,4.032,4.03,4.032,4.032,0,0,0,1.812-7.633Z" transform="translate(-154.6 -357.67)" fill="#fff"/>
    </g>
    <g transform="matrix(1, 0, 0, 1, 36.52, 29.27)" filter="url(#Path_200)">
      <path id="Path_200-2" data-name="Path 200" d="M181.317,359.679l0,0c-.308,0-1.088-.119-1.146-.128a8.235,8.235,0,0,1-7.032-7.872,4.735,4.735,0,1,0-4.73,4.964c.055,0,.107,0,.161-.007h.038v0l.031,0a7.155,7.155,0,0,1,2.509.411,8.3,8.3,0,0,1,5.015,7.351,4.736,4.736,0,1,0,5.157-4.715Z" transform="translate(-154.64 -341.12)" fill="#fff"/>
    </g>
    <g transform="matrix(1, 0, 0, 1, 36.52, 29.27)" filter="url(#Path_201)">
      <path id="Path_201-2" data-name="Path 201" d="M258.432,369.428V355.551a3.046,3.046,0,0,0-1.414-1.691,4.522,4.522,0,0,0-2.29-.51h-8.769a5.486,5.486,0,0,0-2.439.542q-1.3.607-1.3,1.531v14h-3.735v-20h3.735v.829a8.351,8.351,0,0,1,3.706-.829h8.8a8.461,8.461,0,0,1,4.821,1.434h-.03a5.235,5.235,0,0,1,2.652,4.563v14Z" transform="translate(-198.32 -342.44)" fill="#fff"/>
    </g>
    <g transform="matrix(1, 0, 0, 1, 36.52, 29.27)" filter="url(#Path_202)">
      <path id="Path_202-2" data-name="Path 202" d="M329.218,355.437A5.355,5.355,0,0,1,326.627,360a8.385,8.385,0,0,1-4.851,1.467h-8.769a8.735,8.735,0,0,1-1.686-.16,14.292,14.292,0,0,1-2.05-.606v2.743q.09.83,1.446,1.5a4.545,4.545,0,0,0,1.175.494,4.593,4.593,0,0,0,1.115.144h8.769a5.874,5.874,0,0,0,1.069-.1,3.47,3.47,0,0,0,1.01-.35,3.294,3.294,0,0,0,1.717-2.265h3.705a7.016,7.016,0,0,1-2.951,5.264,7.914,7.914,0,0,1-4.551,1.371h-8.769a8.64,8.64,0,0,1-4.731-1.4,5.3,5.3,0,0,1-2.742-4.626v-8.007a5.22,5.22,0,0,1,2.5-4.53,8.629,8.629,0,0,1,4.973-1.436h8.769a8.751,8.751,0,0,1,4.881,1.372A5.219,5.219,0,0,1,329.218,355.437Zm-3.737.063a1.614,1.614,0,0,0-.993-1.34,4.885,4.885,0,0,0-2.743-.734h-8.737a6.125,6.125,0,0,0-2.41.541q-1.326.576-1.326,1.5,0,.893,1.3,1.5a5.488,5.488,0,0,0,2.44.574h8.769a5.083,5.083,0,0,0,2.712-.7A1.613,1.613,0,0,0,325.481,355.5Z" transform="translate(-237.47 -342.48)" fill="#fff"/>
    </g>
    <g transform="matrix(1, 0, 0, 1, 36.52, 29.27)" filter="url(#Path_203)">
      <path id="Path_203-2" data-name="Path 203" d="M394.413,367.973a7.515,7.515,0,0,1-4.851,1.5,10.9,10.9,0,0,1-3.194-.478,9.036,9.036,0,0,1-2.894-1.5,10.257,10.257,0,0,1-2.965,1.5,10.7,10.7,0,0,1-3.24.509,7.682,7.682,0,0,1-4.791-1.466,5.455,5.455,0,0,1-2.14-4.562V349.5h3.737v14.005a1.684,1.684,0,0,0,1.024,1.467,5.665,5.665,0,0,0,2.742.607,5.387,5.387,0,0,0,2.712-.607,1.656,1.656,0,0,0,1.054-1.5v-8.614h3.736v8.645a1.577,1.577,0,0,0,1.024,1.436,5.545,5.545,0,0,0,2.682.606,5.471,5.471,0,0,0,2.742-.606,1.623,1.623,0,0,0,1.055-1.436V349.5h3.767v13.973A5.391,5.391,0,0,1,394.413,367.973Z" transform="translate(-275.3 -342.48)" fill="#fff"/>
    </g>
    <g transform="matrix(1, 0, 0, 1, 36.52, 29.27)" filter="url(#Path_204)">
      <path id="Path_204-2" data-name="Path 204" d="M467.128,363.538a5.223,5.223,0,0,1-2.561,4.563,8.71,8.71,0,0,1-4.882,1.4h-8.768a16.658,16.658,0,0,1-1.7-.079,6.865,6.865,0,0,1-1.372-.271h.031a6.922,6.922,0,0,1-1.521-.654,4.816,4.816,0,0,1-1.222-1.037v.031a9.588,9.588,0,0,1-1.808-4.625h3.8a3.358,3.358,0,0,0,1.475,2.169v-.032a4.372,4.372,0,0,0,2.322.574h8.737a5.339,5.339,0,0,0,2.742-.7v.033a1.7,1.7,0,0,0,.994-1.4,1.616,1.616,0,0,0-.994-1.34,4.725,4.725,0,0,0-1.266-.511,6.168,6.168,0,0,0-1.446-.159h-8.768a8.426,8.426,0,0,1-4.881-1.467,5.379,5.379,0,0,1-2.592-4.593,5.209,5.209,0,0,1,2.532-4.531,8.809,8.809,0,0,1,4.942-1.4h8.768a7.866,7.866,0,0,1,4.55,1.34,7.719,7.719,0,0,1,3.013,5.3h-3.765a3.373,3.373,0,0,0-1.476-2.17V354a4.47,4.47,0,0,0-2.321-.542h-8.768a5.777,5.777,0,0,0-1.462.176,4.475,4.475,0,0,0-1.281.558q-.992.574-.993,1.276t1.084,1.371a5.168,5.168,0,0,0,2.652.7h8.768a8.54,8.54,0,0,1,4.821,1.437A5.34,5.34,0,0,1,467.128,363.538Z" transform="translate(-317.92 -342.48)" fill="#fff"/>
    </g>
    <g transform="matrix(1, 0, 0, 1, 36.52, 29.27)" filter="url(#Path_205)">
      <path id="Path_205-2" data-name="Path 205" d="M531.762,368.069a8.663,8.663,0,0,1-4.942,1.435h-8.769a8.707,8.707,0,0,1-4.94-1.4,5.314,5.314,0,0,1,.06-9.092,8.421,8.421,0,0,1,4.881-1.469h8.769a8.542,8.542,0,0,1,1.657.16,14.5,14.5,0,0,1,2.049.605V355.6c-.081-.574-.554-1.084-1.415-1.531a4.808,4.808,0,0,0-2.291-.638h-8.769a6.112,6.112,0,0,0-1.1.1,3.5,3.5,0,0,0-1.01.35,3.305,3.305,0,0,0-1.718,2.266h-3.7a7.178,7.178,0,0,1,2.922-5.264,7.963,7.963,0,0,1,4.579-1.372h8.8a8.588,8.588,0,0,1,4.731,1.372,5.258,5.258,0,0,1,2.712,4.625v8.007A5.3,5.3,0,0,1,531.762,368.069Zm-1.235-4.531q0-.893-1.3-1.5a5.417,5.417,0,0,0-2.41-.574h-8.769a5.365,5.365,0,0,0-2.742.7,1.428,1.428,0,0,0-.03,2.71,5.14,5.14,0,0,0,2.742.7h8.8a5.516,5.516,0,0,0,2.381-.511Q530.525,364.433,530.527,363.538Z" transform="translate(-357.15 -342.48)" fill="#fff"/>
    </g>
    <g transform="matrix(1, 0, 0, 1, 36.52, 29.27)" filter="url(#Path_206)">
      <path id="Path_206-2" data-name="Path 206" d="M597.66,369.428V355.551a3.054,3.054,0,0,0-1.416-1.691,4.517,4.517,0,0,0-2.29-.51h-8.77a5.488,5.488,0,0,0-2.439.542q-1.3.607-1.3,1.531v14h-3.736v-20h3.736v.829a8.345,8.345,0,0,1,3.706-.829h8.8a8.457,8.457,0,0,1,4.821,1.434h-.031a5.231,5.231,0,0,1,2.652,4.563v14Z" transform="translate(-396.38 -342.44)" fill="#fff"/>
    </g>
  </g>
</svg>
